<svg width="221" height="206" viewBox="0 0 221 206" fill="none" xmlns="http://www.w3.org/2000/svg">
<path d="M201 35L216 96M201 35L176 6M201 35L5 123M216 96L176 6M216 96L170 190M216 96L5 123M216 96L109 165L108.78 165.14M176 6L135.15 33.95M170 190H68.66M170 190L108.78 165.14M5 123L75.99 33.01M5 123L135.15 33.95M5 123L30.71 190M5 123L108.78 165.14M5 123L16.6049 178.538C18.0003 185.216 23.8877 190 30.71 190V190M75.99 33.01L76 33M75.99 33.01L135.15 33.95M75.99 33.01L75.5 33M201.5 35L201 34.99L135.15 33.95M30.71 190H68.66M30.71 190V190C34.494 199.862 46.3194 203.844 55.2983 198.28L68.66 190M68.66 190L108.78 165.14" stroke="#FF4265" stroke-width="9" stroke-miterlimit="10"/>
</svg>
